<?xml version="1.0" encoding="utf-8"?>
<svg version="1.1" xmlns:xlink="http://www.w3.org/1999/xlink" width="49px" height="44px" xmlns="http://www.w3.org/2000/svg">
  <g transform="matrix(1 0 0 1 -13 -12 )">
    <path d="M 47.9181385869565 17.6367137355584  C 48.6393795289855 18.3427471116816  49 19.1946940522037  49 20.1925545571245  L 49 23.8074454428755  C 49 24.8053059477963  48.6393795289855 25.6572528883184  47.9181385869565 26.3632862644416  C 47.1968976449275 27.0693196405648  46.2592844202899 27.4223363286264  45.1052989130435 27  L 21.6705163043478 27  L 31.4239130434783 35.7252888318357  C 32.2672101449275 36.403080872914  32.6888586956522 37.2503209242619  32.6888586956522 38.2670089858793  C 32.6888586956522 39.2836970474968  32.2672101449275 40.1309370988447  31.4239130434783 40.808729139923  L 28.9273097826087 42.9550706033376  C 28.1062047101449 43.6516902011125  27.1075634057971 44  25.9313858695652 44  C 24.7774003623188 44  23.7676630434783 43.6516902011125  22.9021739130435 42.9550706033376  L 1.23165760869565 24.5417201540436  C 0.410552536231884 23.8451005562687  0 22.9978605049208  0 22  C 0 21.0209670517758  0.410552536231884 20.1643132220796  1.23165760869565 19.4300385109114  L 22.9021739130435 1.07317073170732  C 23.7454710144928 0.357723577235769  24.7552083333333 0  25.9313858695652 0  C 27.0853713768116 0  28.0840126811594 0.357723577235769  28.9273097826087 1.07317073170732  L 31.4239130434783 3.16302952503209  C 32.2672101449275 3.87847667950364  32.6888586956522 4.73513050919982  32.6888586956522 5.73299101412067  C 32.6888586956522 6.7308515190415  32.2672101449275 7.58750534873769  31.4239130434783 8.30295250320924  L 21.6705163043478 17  L 45.1052989130435 17  C 46.2592844202899 16.5776636713736  47.1968976449275 16.9306803594352  47.9181385869565 17.6367137355584  Z " fill-rule="nonzero" fill="#000000" stroke="none" transform="matrix(1 0 0 1 13 12 )" />
  </g>
</svg>