<?xml version="1.0" encoding="utf-8"?>
<svg version="1.1" xmlns:xlink="http://www.w3.org/1999/xlink" width="81px" height="81px" xmlns="http://www.w3.org/2000/svg">
  <g transform="matrix(1 0 0 1 -167 -601 )">
    <path d="M 207.5 604  C 228.5 604  245 620.5  245 641.5  C 245 662.5  228.5 679  207.5 679  C 186.5 679  170 662.5  170 641.5  C 170 620.5  186.5 604  207.5 604  Z " fill-rule="nonzero" fill="#ffffff" stroke="none" />
    <path d="M 207.5 603  C 229.06 603  246 619.94  246 641.5  C 246 663.06  229.06 680  207.5 680  C 185.94 680  169 663.06  169 641.5  C 169 619.94  185.94 603  207.5 603  Z " stroke-width="4" stroke="#f2f2f2" fill="none" />
  </g>
</svg>