<?xml version="1.0" encoding="utf-8"?>
<svg version="1.1" xmlns:xlink="http://www.w3.org/1999/xlink" width="15px" height="22px" xmlns="http://www.w3.org/2000/svg">
  <g transform="matrix(1 0 0 1 -46 -621 )">
    <path d="M 14.62890625 0.34375  C 14.8763020833333 0.572916666666663  15 0.844298245614032  15 1.15789473684211  L 15 20.8421052631579  C 15 21.155701754386  14.8763020833333 21.4270833333333  14.62890625 21.65625  C 14.3815104166667 21.8854166666667  14.0885416666667 22  13.75 22  C 13.4114583333333 22  13.1184895833333 21.8854166666667  12.87109375 21.65625  L 6.3671875 15.6315789473684  L 1.25 15.6315789473684  C 0.911458333333333 15.6315789473684  0.618489583333333 15.5169956140351  0.37109375 15.2878289473684  C 0.123697916666667 15.0586622807018  0 14.7872807017544  0 14.4736842105263  L 0 7.52631578947368  C 0 7.21271929824561  0.123697916666667 6.94133771929824  0.37109375 6.71217105263158  C 0.618489583333333 6.48300438596491  0.911458333333333 6.36842105263158  1.25 6.36842105263158  L 6.3671875 6.36842105263158  L 12.87109375 0.34375  C 13.1184895833333 0.114583333333332  13.4114583333333 0  13.75 0  C 14.0885416666667 0  14.3815104166667 0.114583333333332  14.62890625 0.34375  Z " fill-rule="nonzero" fill="#000000" stroke="none" transform="matrix(1 0 0 1 46 621 )" />
  </g>
</svg>