<?xml version="1.0" encoding="utf-8"?>
<svg version="1.1" xmlns:xlink="http://www.w3.org/1999/xlink" width="26px" height="22px" xmlns="http://www.w3.org/2000/svg">
  <g transform="matrix(1 0 0 1 -46 -566 )">
    <path d="M 11.703125 1.88748241912799  C 11.9010416666667 2.08345053914674  12 2.31551804969526  12 2.58368495077356  L 12 19.4163150492264  C 12 19.6844819503047  11.9010416666667 19.9165494608533  11.703125 20.112517580872  C 11.5052083333333 20.3084857008908  11.2708333333333 20.4064697609001  11 20.4064697609001  C 10.7291666666667 20.4064697609001  10.4947916666667 20.3084857008908  10.296875 20.112517580872  L 5.09375 14.9606188466948  L 1 14.9606188466948  C 0.729166666666667 14.9606188466948  0.494791666666667 14.8626347866854  0.296875 14.6666666666667  C 0.0989583333333333 14.4706985466479  0 14.2386310360994  0 13.9704641350211  L 0 8.0295358649789  C 0 7.76136896390061  0.0989583333333333 7.52930145335208  0.296875 7.33333333333333  C 0.494791666666667 7.13736521331458  0.729166666666667 7.03938115330521  1 7.03938115330521  L 5.09375 7.03938115330521  L 10.296875 1.88748241912799  C 10.4947916666667 1.69151429910924  10.7291666666667 1.59353023909986  11 1.59353023909986  C 11.2708333333333 1.59353023909986  11.5052083333333 1.69151429910924  11.703125 1.88748241912799  Z M 17.3359375 8.80309423347398  C 17.7786458333333 9.48382559774965  18 10.216127519925  18 11  C 18 11.783872480075  17.7786458333333 12.5135958743554  17.3359375 13.1891701828411  C 16.8932291666667 13.8647444913268  16.3072916666667 14.3469292076887  15.578125 14.6357243319269  C 15.4739583333333 14.6872948898265  15.34375 14.7130801687764  15.1875 14.7130801687764  C 14.9166666666667 14.7130801687764  14.6822916666667 14.617674636662  14.484375 14.4268635724332  C 14.2864583333333 14.2360525082044  14.1875 14.0014064697609  14.1875 13.7229254571027  C 14.1875 13.506329113924  14.25 13.3232536333802  14.375 13.1736990154712  C 14.5 13.0241443975621  14.6510416666667 12.8952180028129  14.828125 12.7869198312236  C 15.0052083333333 12.6786216596343  15.1822916666667 12.5600093764651  15.359375 12.4310829817159  C 15.5364583333333 12.3021565869667  15.6875 12.1165025785279  15.8125 11.8741209563994  C 15.9375 11.631739334271  16 11.3403656821378  16 11  C 16 10.6596343178622  15.9375 10.368260665729  15.8125 10.1258790436006  C 15.6875 9.8834974214721  15.5364583333333 9.69784341303328  15.359375 9.56891701828411  C 15.1822916666667 9.43999062353493  15.0052083333333 9.32137834036568  14.828125 9.21308016877637  C 14.6510416666667 9.10478199718706  14.5 8.97585560243788  14.375 8.82630098452883  C 14.25 8.67674636661978  14.1875 8.49367088607595  14.1875 8.27707454289733  C 14.1875 7.9985935302391  14.2864583333333 7.76394749179559  14.484375 7.57313642756681  C 14.6822916666667 7.38232536333802  14.9166666666667 7.28691983122363  15.1875 7.28691983122363  C 15.34375 7.28691983122363  15.4739583333333 7.31270511017346  15.578125 7.36427566807314  C 16.3072916666667 7.64275668073136  16.8932291666667 8.12236286919831  17.3359375 8.80309423347398  Z M 20.671875 6.62939521800281  C 21.5572916666667 7.96507266760431  22 9.42194092827004  22 11  C 22 12.57805907173  21.5572916666667 14.0349273323957  20.671875 15.3706047819972  C 19.7864583333333 16.7062822315987  18.6145833333333 17.6783872480075  17.15625 18.2869198312236  C 17.0208333333333 18.3384903891233  16.890625 18.3642756680731  16.765625 18.3642756680731  C 16.484375 18.3642756680731  16.2447916666667 18.2662916080638  16.046875 18.070323488045  C 15.8489583333333 17.8743553680263  15.75 17.6422878574777  15.75 17.3741209563994  C 15.75 16.971870604782  15.953125 16.6676043131739  16.359375 16.4613220815752  C 16.9427083333333 16.1622128457571  17.3385416666667 15.9353023909986  17.546875 15.7805907172996  C 18.3177083333333 15.2236286919831  18.9192708333333 14.5248476324426  19.3515625 13.6842475386779  C 19.7838541666667 12.8436474449133  20 11.948898265354  20 11  C 20 10.051101734646  19.7838541666667 9.15635255508673  19.3515625 8.31575246132208  C 18.9192708333333 7.47515236755743  18.3177083333333 6.77637130801688  17.546875 6.21940928270042  C 17.3385416666667 6.06469760900141  16.9427083333333 5.83778715424285  16.359375 5.53867791842475  C 15.953125 5.33239568682606  15.75 5.028129395218  15.75 4.62587904360056  C 15.75 4.35771214252227  15.8489583333333 4.12564463197374  16.046875 3.92967651195499  C 16.2447916666667 3.73370839193624  16.4791666666667 3.63572433192686  16.75 3.63572433192686  C 16.8854166666667 3.63572433192686  17.0208333333333 3.6615096108767  17.15625 3.71308016877637  C 18.6145833333333 4.3216127519925  19.7864583333333 5.29371776840131  20.671875 6.62939521800281  Z M 24.015625 4.4634317862166  C 25.3385416666667 6.44889826535396  26 8.62775433661509  26 11  C 26 13.3722456633849  25.3385416666667 15.551101734646  24.015625 17.5365682137834  C 22.6927083333333 19.5220346929208  20.9322916666667 20.9840600093765  18.734375 21.9226441631505  C 18.5989583333333 21.9742147210502  18.4635416666667 22  18.328125 22  C 18.0572916666667 22  17.8229166666667 21.9020159399906  17.625 21.7060478199719  C 17.4270833333333 21.5100796999531  17.328125 21.2780121894046  17.328125 21.0098452883263  C 17.328125 20.6385372714487  17.53125 20.3342709798406  17.9375 20.0970464135021  C 18.0104166666667 20.0557899671824  18.1276041666667 20.0016408813877  18.2890625 19.9345991561181  C 18.4505208333333 19.8675574308486  18.5677083333333 19.8134083450539  18.640625 19.7721518987342  C 19.1197916666667 19.5142991092358  19.546875 19.2512892639475  19.921875 18.9831223628692  C 21.203125 18.0445382090952  22.203125 16.8738865447726  22.921875 15.4711673699015  C 23.640625 14.0684481950305  24 12.57805907173  24 11  C 24 9.42194092827004  23.640625 7.93155180496953  22.921875 6.52883263009845  C 22.203125 5.12611345522738  21.203125 3.95546179090483  19.921875 3.0168776371308  C 19.546875 2.74871073605251  19.1197916666667 2.48570089076418  18.640625 2.22784810126582  C 18.5677083333333 2.18659165494608  18.4505208333333 2.13244256915143  18.2890625 2.06540084388186  C 18.1276041666667 1.99835911861228  18.0104166666667 1.94421003281763  17.9375 1.90295358649789  C 17.53125 1.6657290201594  17.328125 1.36146272855133  17.328125 0.9901547116737  C 17.328125 0.721987810595403  17.4270833333333 0.48992030004688  17.625 0.293952180028129  C 17.8229166666667 0.0979840600093755  18.0572916666667 0  18.328125 0  C 18.4635416666667 0  18.5989583333333 0.0257852789498345  18.734375 0.0773558368495084  C 20.9322916666667 1.01593999062353  22.6927083333333 2.47796530707923  24.015625 4.4634317862166  Z " fill-rule="nonzero" fill="#000000" stroke="none" transform="matrix(1 0 0 1 46 566 )" />
  </g>
</svg>