<?xml version="1.0" encoding="utf-8"?>
<svg version="1.1" xmlns:xlink="http://www.w3.org/1999/xlink" width="40px" height="40px" xmlns="http://www.w3.org/2000/svg">
  <g transform="matrix(1 0 0 1 -355 -357 )">
    <path d="M 15.7604166666667 18.1850961538462  C 16.9340277777778 16.8309294871795  18.3472222222222 16.1538461538462  20 16.1538461538462  C 21.6527777777778 16.1538461538462  23.0659722222222 16.8309294871795  24.2395833333333 18.1850961538462  C 25.4131944444445 19.5392628205128  26 21.1698717948718  26 23.0769230769231  C 26 24.9839743589744  25.4131944444445 26.6145833333333  24.2395833333333 27.96875  C 23.0659722222222 29.3229166666667  21.6527777777778 30  20 30  C 18.3472222222222 30  16.9340277777778 29.3229166666667  15.7604166666667 27.96875  C 14.5868055555556 26.6145833333333  14 24.9839743589744  14 23.0769230769231  C 14 21.1698717948718  14.5868055555556 19.5392628205128  15.7604166666667 18.1850961538462  Z M 30 6.15384615384615  L 34.6666666666667 6.15384615384615  C 36.1388888888889 6.15384615384615  37.3958333333333 6.75480769230769  38.4375 7.95673076923077  C 39.4791666666667 9.15865384615385  40 10.6089743589744  40 12.3076923076923  L 40 33.8461538461538  C 40 35.5448717948718  39.4791666666667 36.9951923076923  38.4375 38.1971153846154  C 37.3958333333333 39.3990384615385  36.1388888888889 40  34.6666666666667 40  L 5.33333333333333 40  C 3.86111111111111 40  2.60416666666667 39.3990384615385  1.5625 38.1971153846154  C 0.520833333333333 36.9951923076923  0 35.5448717948718  0 33.8461538461538  L 0 12.3076923076923  C 0 10.6089743589744  0.520833333333333 9.15865384615385  1.5625 7.95673076923077  C 2.60416666666667 6.75480769230769  3.86111111111111 6.15384615384615  5.33333333333333 6.15384615384615  L 10 6.15384615384615  L 11.0625 2.88461538461538  C 11.3263888888889 2.09935897435897  11.8090277777778 1.42227564102564  12.5104166666667 0.853365384615383  C 13.2118055555556 0.284455128205132  13.9305555555556 0  14.6666666666667 0  L 25.3333333333333 0  C 26.0694444444444 0  26.7881944444444 0.284455128205132  27.4895833333333 0.853365384615383  C 28.1909722222222 1.42227564102564  28.6736111111111 2.09935897435897  28.9375 2.88461538461538  L 30 6.15384615384615  Z M 13.40625 30.6850961538462  C 15.2326388888889 32.7924679487179  17.4305555555556 33.8461538461538  20 33.8461538461538  C 22.5694444444444 33.8461538461538  24.7673611111111 32.7924679487179  26.59375 30.6850961538462  C 28.4201388888889 28.5777243589744  29.3333333333333 26.0416666666667  29.3333333333333 23.0769230769231  C 29.3333333333333 20.1121794871795  28.4201388888889 17.5761217948718  26.59375 15.46875  C 24.7673611111111 13.3613782051282  22.5694444444444 12.3076923076923  20 12.3076923076923  C 17.4305555555556 12.3076923076923  15.2326388888889 13.3613782051282  13.40625 15.46875  C 11.5798611111111 17.5761217948718  10.6666666666667 20.1121794871795  10.6666666666667 23.0769230769231  C 10.6666666666667 26.0416666666667  11.5798611111111 28.5777243589744  13.40625 30.6850961538462  Z " fill-rule="nonzero" fill="#000000" stroke="none" transform="matrix(1 0 0 1 355 357 )" />
  </g>
</svg>