<?xml version="1.0" encoding="utf-8"?>
<svg version="1.1" xmlns:xlink="http://www.w3.org/1999/xlink" width="49px" height="50px" xmlns="http://www.w3.org/2000/svg">
  <g transform="matrix(1 0 0 1 -341 -112 )">
    <path d="M 30.05078125 30.6640625  C 32.6323116987179 28.0298477564103  33.9230769230769 24.8597756410256  33.9230769230769 21.1538461538462  C 33.9230769230769 17.4479166666667  32.6323116987179 14.277844551282  30.05078125 11.6436298076923  C 27.4692508012821 9.00941506410256  24.3625801282051 7.69230769230769  20.7307692307692 7.69230769230769  C 17.0989583333333 7.69230769230769  13.9922876602564 9.00941506410256  11.4107572115385 11.6436298076923  C 8.82922676282051 14.277844551282  7.53846153846154 17.4479166666667  7.53846153846154 21.1538461538462  C 7.53846153846154 24.8597756410256  8.82922676282051 28.0298477564103  11.4107572115385 30.6640625  C 13.9922876602564 33.2982772435897  17.0989583333333 34.6153846153846  20.7307692307692 34.6153846153846  C 24.3625801282051 34.6153846153846  27.4692508012821 33.2982772435897  30.05078125 30.6640625  Z M 47.9104567307692 43.4495192307692  C 48.6368189102564 44.1907051282051  49 45.0921474358974  49 46.1538461538462  C 49 47.1955128205128  48.6270032051282 48.0969551282051  47.8810096153846 48.8581730769231  C 47.135016025641 49.619391025641  46.2516025641026 50  45.2307692307692 50  C 44.1706730769231 50  43.2872596153846 49.619391025641  42.5805288461538 48.8581730769231  L 32.4801682692308 38.5817307692308  C 28.9661458333333 41.0657051282051  25.0496794871795 42.3076923076923  20.7307692307692 42.3076923076923  C 17.9234775641026 42.3076923076923  15.2388822115385 41.7518028846154  12.6769831730769 40.6400240384615  C 10.1150841346154 39.5282451923077  7.90655048076923 38.0258413461538  6.05138221153846 36.1328125  C 4.19621394230769 34.2397836538462  2.72385817307692 31.9861778846154  1.63431490384615 29.3719951923077  C 0.544771634615385 26.7578125  0 24.0184294871795  0 21.1538461538462  C 0 18.2892628205128  0.544771634615385 15.5498798076923  1.63431490384615 12.9356971153846  C 2.72385817307692 10.3215144230769  4.19621394230769 8.06790865384616  6.05138221153846 6.17487980769231  C 7.90655048076923 4.28185096153846  10.1150841346154 2.77944711538461  12.6769831730769 1.66766826923077  C 15.2388822115385 0.555889423076922  17.9234775641026 0  20.7307692307692 0  C 23.5380608974359 0  26.22265625 0.555889423076922  28.7845552884615 1.66766826923077  C 31.3464543269231 2.77944711538461  33.5549879807692 4.28185096153846  35.41015625 6.17487980769231  C 37.2653245192308 8.06790865384616  38.7376802884615 10.3215144230769  39.8272235576923 12.9356971153846  C 40.9167668269231 15.5498798076923  41.4615384615385 18.2892628205128  41.4615384615385 21.1538461538462  C 41.4615384615385 25.5608974358974  40.244391025641 29.5572916666667  37.8100961538462 33.1430288461538  L 47.9104567307692 43.4495192307692  Z " fill-rule="nonzero" fill="#000000" stroke="none" transform="matrix(1 0 0 1 341 112 )" />
  </g>
</svg>