<?xml version="1.0" encoding="utf-8"?>
<svg version="1.1" xmlns:xlink="http://www.w3.org/1999/xlink" width="26px" height="28px" xmlns="http://www.w3.org/2000/svg">
  <g transform="matrix(1 0 0 1 -305 -216 )">
    <path d="M 25.3872053872054 20.9292929292929  C 25.7957351290685 21.3692480359147  26 21.9034792368126  26 22.5319865319865  C 26 23.1604938271605  25.7957351290685 23.6947250280584  25.3872053872054 24.1346801346801  L 22.4107744107744 27.3400673400673  C 22.0022446689113 27.7800224466891  21.5061728395062 28  20.9225589225589 28  C 20.3389450056117 28  19.8428731762065 27.7800224466891  19.4343434343434 27.3400673400673  L 13 20.4107744107744  L 6.56565656565657 27.3400673400673  C 6.15712682379349 27.7800224466891  5.66105499438833 28  5.07744107744108 28  C 4.49382716049383 28  3.99775533108867 27.7800224466891  3.58922558922559 27.3400673400673  L 0.612794612794613 24.1346801346801  C 0.204264870931538 23.6947250280584  0 23.1604938271605  0 22.5319865319865  C 0 21.9034792368126  0.204264870931538 21.3692480359147  0.612794612794613 20.9292929292929  L 7.04713804713805 14  L 0.612794612794613 7.07070707070707  C 0.204264870931538 6.6307519640853  0 6.09652076318743  0 5.46801346801347  C 0 4.83950617283951  0.204264870931538 4.30527497194163  0.612794612794613 3.86531986531987  L 3.58922558922559 0.65993265993266  C 3.99775533108867 0.219977553310886  4.49382716049383 0  5.07744107744108 0  C 5.66105499438833 0  6.15712682379349 0.219977553310886  6.56565656565657 0.65993265993266  L 13 7.58922558922559  L 19.4343434343434 0.65993265993266  C 19.8428731762065 0.219977553310886  20.3389450056117 0  20.9225589225589 0  C 21.5061728395062 0  22.0022446689113 0.219977553310886  22.4107744107744 0.65993265993266  L 25.3872053872054 3.86531986531987  C 25.7957351290685 4.30527497194163  26 4.83950617283951  26 5.46801346801347  C 26 6.09652076318743  25.7957351290685 6.6307519640853  25.3872053872054 7.07070707070707  L 18.952861952862 14  L 25.3872053872054 20.9292929292929  Z " fill-rule="nonzero" fill="#000000" stroke="none" transform="matrix(1 0 0 1 305 216 )" />
  </g>
</svg>