<?xml version="1.0" encoding="utf-8"?>
<svg version="1.1" xmlns:xlink="http://www.w3.org/1999/xlink" width="28px" height="30px" xmlns="http://www.w3.org/2000/svg">
  <g transform="matrix(1 0 0 1 -101 -290 )">
    <path d="M 22.9869791666667 17.12890625  C 23.2178819444444 16.8815104166667  23.3333333333333 16.5885416666667  23.3333333333333 16.25  L 23.3333333333333 13.75  C 23.3333333333333 13.4114583333333  23.2178819444444 13.1184895833333  22.9869791666667 12.87109375  C 22.7560763888889 12.6236979166667  22.4826388888889 12.5  22.1666666666667 12.5  L 13.015625 12.5  L 16.4609375 8.80859375  C 16.6918402777778 8.56119791666666  16.8072916666667 8.26822916666666  16.8072916666667 7.9296875  C 16.8072916666667 7.59114583333333  16.6918402777778 7.29817708333333  16.4609375 7.05078125  L 14.8020833333333 5.2734375  C 14.5833333333333 5.0390625  14.3098958333333 4.921875  13.9817708333333 4.921875  C 13.6536458333333 4.921875  13.3802083333333 5.0390625  13.1614583333333 5.2734375  L 6.5625 12.34375  L 4.90364583333333 14.12109375  C 4.68489583333333 14.35546875  4.57552083333333 14.6484375  4.57552083333333 15  C 4.57552083333333 15.3515625  4.68489583333333 15.64453125  4.90364583333333 15.87890625  L 6.5625 17.65625  L 13.1614583333333 24.7265625  C 13.3802083333333 24.9609375  13.6536458333333 25.078125  13.9817708333333 25.078125  C 14.3098958333333 25.078125  14.5833333333333 24.9609375  14.8020833333333 24.7265625  L 16.4609375 22.94921875  C 16.6796875 22.71484375  16.7890625 22.421875  16.7890625 22.0703125  C 16.7890625 21.71875  16.6796875 21.42578125  16.4609375 21.19140625  L 13.015625 17.5  L 22.1666666666667 17.5  C 22.4826388888889 17.5  22.7560763888889 17.3763020833333  22.9869791666667 17.12890625  Z M 26.1223958333333 7.470703125  C 27.3741319444444 9.76888020833333  28 12.2786458333333  28 15  C 28 17.7213541666667  27.3741319444444 20.2311197916667  26.1223958333333 22.529296875  C 24.8706597222222 24.8274739583333  23.1723090277778 26.6471354166667  21.02734375 27.98828125  C 18.8823784722222 29.3294270833333  16.5399305555556 30  14 30  C 11.4600694444444 30  9.11762152777778 29.3294270833333  6.97265625 27.98828125  C 4.82769097222222 26.6471354166667  3.12934027777778 24.8274739583333  1.87760416666667 22.529296875  C 0.625868055555555 20.2311197916667  0 17.7213541666667  0 15  C 0 12.2786458333333  0.625868055555555 9.76888020833333  1.87760416666667 7.470703125  C 3.12934027777778 5.17252604166667  4.82769097222222 3.35286458333333  6.97265625 2.01171875  C 9.11762152777778 0.670572916666664  11.4600694444444 0  14 0  C 16.5399305555556 0  18.8823784722222 0.670572916666664  21.02734375 2.01171875  C 23.1723090277778 3.35286458333333  24.8706597222222 5.17252604166667  26.1223958333333 7.470703125  Z " fill-rule="nonzero" fill="#000000" stroke="none" transform="matrix(1 0 0 1 101 290 )" />
  </g>
</svg>