<?xml version="1.0" encoding="utf-8"?>
<svg version="1.1" xmlns:xlink="http://www.w3.org/1999/xlink" width="30px" height="32px" xmlns="http://www.w3.org/2000/svg">
  <g transform="matrix(1 0 0 1 -294 -290 )">
    <path d="M 24.74609375 16.9375  C 24.98046875 16.6875  25.09765625 16.375  25.09765625 16  C 25.09765625 15.625  24.98046875 15.3125  24.74609375 15.0625  L 22.96875 13.1666666666667  L 15.8984375 5.625  C 15.6640625 5.375  15.37109375 5.25  15.01953125 5.25  C 14.66796875 5.25  14.375 5.375  14.140625 5.625  L 12.36328125 7.52083333333333  C 12.12890625 7.77083333333333  12.01171875 8.08333333333333  12.01171875 8.45833333333333  C 12.01171875 8.83333333333333  12.12890625 9.14583333333333  12.36328125 9.39583333333333  L 16.0546875 13.3333333333333  L 6.25 13.3333333333333  C 5.91145833333333 13.3333333333333  5.61848958333333 13.4652777777778  5.37109375 13.7291666666667  C 5.12369791666667 13.9930555555556  5 14.3055555555556  5 14.6666666666667  L 5 17.3333333333333  C 5 17.6944444444444  5.12369791666667 18.0069444444444  5.37109375 18.2708333333333  C 5.61848958333333 18.5347222222222  5.91145833333333 18.6666666666667  6.25 18.6666666666667  L 16.0546875 18.6666666666667  L 12.36328125 22.6041666666667  C 12.1158854166667 22.8680555555556  11.9921875 23.1805555555556  11.9921875 23.5416666666667  C 11.9921875 23.9027777777778  12.1158854166667 24.2152777777778  12.36328125 24.4791666666667  L 14.140625 26.375  C 14.375 26.625  14.66796875 26.75  15.01953125 26.75  C 15.37109375 26.75  15.6640625 26.625  15.8984375 26.375  L 22.96875 18.8333333333333  L 24.74609375 16.9375  Z M 27.98828125 7.96875  C 29.3294270833333 10.4201388888889  30 13.0972222222222  30 16  C 30 18.9027777777778  29.3294270833333 21.5798611111111  27.98828125 24.03125  C 26.6471354166667 26.4826388888889  24.8274739583333 28.4236111111111  22.529296875 29.8541666666667  C 20.2311197916667 31.2847222222222  17.7213541666667 32  15 32  C 12.2786458333333 32  9.76888020833333 31.2847222222222  7.470703125 29.8541666666667  C 5.17252604166667 28.4236111111111  3.35286458333333 26.4826388888889  2.01171875 24.03125  C 0.670572916666667 21.5798611111111  0 18.9027777777778  0 16  C 0 13.0972222222222  0.670572916666667 10.4201388888889  2.01171875 7.96875  C 3.35286458333333 5.51736111111111  5.17252604166667 3.57638888888889  7.470703125 2.14583333333333  C 9.76888020833333 0.715277777777775  12.2786458333333 0  15 0  C 17.7213541666667 0  20.2311197916667 0.715277777777775  22.529296875 2.14583333333333  C 24.8274739583333 3.57638888888889  26.6471354166667 5.51736111111111  27.98828125 7.96875  Z " fill-rule="nonzero" fill="#000000" stroke="none" transform="matrix(1 0 0 1 294 290 )" />
  </g>
</svg>