<?xml version="1.0" encoding="utf-8"?>
<svg version="1.1" xmlns:xlink="http://www.w3.org/1999/xlink" width="52px" height="53px" xmlns="http://www.w3.org/2000/svg">
  <g transform="matrix(1 0 0 1 -305 -12 )">
    <path d="M 36.3303571428571 46.6263950892857  C 39.5223214285714 44.9011346726191  42.1436011904762 42.5597098214286  44.1941964285714 39.6021205357143  C 43.7686011904762 36.5459449404762  42.9222470238095 34.0073474702381  41.6551339285714 31.986328125  C 40.3880208333333 29.9653087797619  38.6034226190476 28.7970610119048  36.3013392857143 28.4815848214286  C 35.0052083333333 29.9406622023809  33.4624255952381 31.0793340773809  31.6729910714286 31.8976004464286  C 29.8835565476191 32.7158668154762  27.9925595238095 33.125  26 33.125  C 24.0074404761905 33.125  22.116443452381 32.7158668154762  20.3270089285714 31.8976004464286  C 18.5375744047619 31.0793340773809  16.9947916666667 29.9406622023809  15.6986607142857 28.4815848214286  C 13.3965773809524 28.7970610119048  11.6119791666667 29.9653087797619  10.3448660714286 31.986328125  C 9.07775297619048 34.0073474702381  8.23139880952381 36.5459449404762  7.80580357142857 39.6021205357143  C 9.85639880952381 42.5597098214286  12.4776785714286 44.9011346726191  15.6696428571429 46.6263950892857  C 18.8616071428571 48.3516555059524  22.3050595238095 49.2142857142857  26 49.2142857142857  C 29.6949404761905 49.2142857142857  33.1383928571429 48.3516555059524  36.3303571428571 46.6263950892857  Z M 33.8783482142857 26.9584263392857  C 36.0546875 24.740234375  37.1428571428571 22.0636160714286  37.1428571428571 18.9285714285714  C 37.1428571428571 15.7935267857143  36.0546875 13.1169084821429  33.8783482142857 10.8987165178571  C 31.7020089285714 8.68052455357143  29.0758928571429 7.57142857142857  26 7.57142857142857  C 22.9241071428571 7.57142857142857  20.2979910714286 8.68052455357143  18.1216517857143 10.8987165178571  C 15.9453125 13.1169084821429  14.8571428571429 15.7935267857143  14.8571428571429 18.9285714285714  C 14.8571428571429 22.0636160714286  15.9453125 24.740234375  18.1216517857143 26.9584263392857  C 20.2979910714286 29.1766183035714  22.9241071428571 30.2857142857143  26 30.2857142857143  C 29.0758928571429 30.2857142857143  31.7020089285714 29.1766183035714  33.8783482142857 26.9584263392857  Z M 49.9397321428571 16.2075892857143  C 51.3132440476191 19.4806547619048  52 22.9114583333333  52 26.5  C 52 30.0885416666667  51.3132440476191 33.514415922619  49.9397321428571 36.7776227678571  C 48.5662202380952 40.0408296130952  46.7235863095238 42.8603980654762  44.4118303571429 45.236328125  C 42.1000744047619 47.6122581845238  39.3385416666667 49.5001860119048  36.1272321428571 50.9001116071429  C 32.9159226190476 52.300037202381  29.5401785714286 53  26 53  C 22.4791666666667 53  19.1130952380952 52.300037202381  15.9017857142857 50.9001116071429  C 12.6904761904762 49.5001860119048  9.92410714285714 47.6171875  7.60267857142857 45.2511160714286  C 5.28125 42.8850446428571  3.43377976190476 40.0654761904762  2.06026785714286 36.7924107142857  C 0.686755952380952 33.5193452380952  0 30.0885416666667  0 26.5  C 0 22.9114583333333  0.686755952380952 19.4806547619048  2.06026785714286 16.2075892857143  C 3.43377976190476 12.9345238095238  5.28125 10.1149553571429  7.60267857142857 7.74888392857143  C 9.92410714285714 5.3828125  12.6904761904762 3.49981398809524  15.9017857142857 2.09988839285714  C 19.1130952380952 0.699962797619047  22.4791666666667 0  26 0  C 29.5208333333333 0  32.8869047619048 0.699962797619047  36.0982142857143 2.09988839285714  C 39.3095238095238 3.49981398809524  42.0758928571429 5.3828125  44.3973214285714 7.74888392857143  C 46.71875 10.1149553571429  48.5662202380952 12.9345238095238  49.9397321428571 16.2075892857143  Z " fill-rule="nonzero" fill="#000000" stroke="none" transform="matrix(1 0 0 1 305 12 )" />
  </g>
</svg>