<?xml version="1.0" encoding="utf-8"?>
<svg version="1.1" xmlns:xlink="http://www.w3.org/1999/xlink" width="24px" height="24px" xmlns="http://www.w3.org/2000/svg">
  <defs>
    <mask fill="white" id="clip109">
      <path d="M 5 23.3666318771392  C 4.69837483226693 23.3666318771392  0.720253211060361 23.6825314278425  0.404353660356958 23.3666318771392  C 0.404353660356958 16.4174742805985  0.404353660356958 0.515282540629223  0.404353660356958 0.515282540629223  L 6.98851945728347 0.515282540629223  L 23.5598628298814 0.515282540629223  L 23.5598628298814 5  L 5 5  L 5 23.3666318771392  Z " fill-rule="evenodd" />
    </mask>
  </defs>
  <g transform="matrix(1 0 0 1 -33 -420 )">
    <path d="M 5 23.3666318771392  C 4.69837483226693 23.3666318771392  0.720253211060361 23.6825314278425  0.404353660356958 23.3666318771392  C 0.404353660356958 16.4174742805985  0.404353660356958 0.515282540629223  0.404353660356958 0.515282540629223  L 6.98851945728347 0.515282540629223  L 23.5598628298814 0.515282540629223  L 23.5598628298814 5  L 5 5  L 5 23.3666318771392  Z " fill-rule="nonzero" fill="#030303" stroke="none" transform="matrix(1 0 0 1 33 420 )" />
    <path d="M 5 23.3666318771392  C 4.69837483226693 23.3666318771392  0.720253211060361 23.6825314278425  0.404353660356958 23.3666318771392  C 0.404353660356958 16.4174742805985  0.404353660356958 0.515282540629223  0.404353660356958 0.515282540629223  L 6.98851945728347 0.515282540629223  L 23.5598628298814 0.515282540629223  L 23.5598628298814 5  L 5 5  L 5 23.3666318771392  Z " stroke-width="2" stroke="#000000" fill="none" transform="matrix(1 0 0 1 33 420 )" mask="url(#clip109)" />
  </g>
</svg>