<?xml version="1.0" encoding="utf-8"?>
<svg version="1.1" xmlns:xlink="http://www.w3.org/1999/xlink" width="108px" height="129px" xmlns="http://www.w3.org/2000/svg">
  <g transform="matrix(1 0 0 1 -283 -92 )">
    <path d="M 107.2828125 93.2646484375  C 107.7609375 97.4918619791667  108 101.985026041667  108 106.744140625  C 108 112.847005208333  106.2421875 118.08203125  102.7265625 122.44921875  C 99.2109375 126.81640625  94.978125 129  90.028125 129  L 17.971875 129  C 13.021875 129  8.7890625 126.81640625  5.2734375 122.44921875  C 1.7578125 118.08203125  0 112.847005208333  0 106.744140625  C 0 101.985026041667  0.239062500000001 97.4918619791667  0.717187500000001 93.2646484375  C 1.1953125 89.0374348958333  2.08125 84.7822265625  3.375 80.4990234375  C 4.66875 76.2158203125  6.3140625 72.5485026041667  8.3109375 69.4970703125  C 10.3078125 66.4456380208333  12.9515625 63.9541015625  16.2421875 62.0224609375  C 19.5328125 60.0908203125  23.315625 59.125  27.590625 59.125  C 34.959375 66.2916666666667  43.7625 69.875  54 69.875  C 64.2375 69.875  73.040625 66.2916666666667  80.409375 59.125  C 84.684375 59.125  88.4671875 60.0908203125  91.7578125 62.0224609375  C 95.0484375 63.9541015625  97.6921875 66.4456380208333  99.6890625 69.4970703125  C 101.6859375 72.5485026041667  103.33125 76.2158203125  104.625 80.4990234375  C 105.91875 84.7822265625  106.8046875 89.0374348958333  107.2828125 93.2646484375  Z M 76.9078125 9.4482421875  C 83.2359375 15.7470703125  86.4 23.34765625  86.4 32.25  C 86.4 41.15234375  83.2359375 48.7529296875  76.9078125 55.0517578125  C 70.5796875 61.3505859375  62.94375 64.5  54 64.5  C 45.05625 64.5  37.4203125 61.3505859375  31.0921875 55.0517578125  C 24.7640625 48.7529296875  21.6 41.15234375  21.6 32.25  C 21.6 23.34765625  24.7640625 15.7470703125  31.0921875 9.4482421875  C 37.4203125 3.1494140625  45.05625 0  54 0  C 62.94375 0  70.5796875 3.1494140625  76.9078125 9.4482421875  Z " fill-rule="nonzero" fill="#333333" stroke="none" transform="matrix(1 0 0 1 283 92 )" />
  </g>
</svg>