<?xml version="1.0" encoding="utf-8"?>
<svg version="1.1" xmlns:xlink="http://www.w3.org/1999/xlink" width="44px" height="45px" xmlns="http://www.w3.org/2000/svg">
  <g transform="matrix(1 0 0 1 -343 -120 )">
    <path d="M 26.984375 27.59765625  C 29.302483974359 25.2268629807692  30.4615384615385 22.3737980769231  30.4615384615385 19.0384615384615  C 30.4615384615385 15.703125  29.302483974359 12.8500600961538  26.984375 10.4792668269231  C 24.666266025641 8.1084735576923  21.8766025641026 6.92307692307692  18.6153846153846 6.92307692307692  C 15.3541666666667 6.92307692307692  12.5645032051282 8.1084735576923  10.2463942307692 10.4792668269231  C 7.92828525641026 12.8500600961538  6.76923076923077 15.703125  6.76923076923077 19.0384615384615  C 6.76923076923077 22.3737980769231  7.92828525641026 25.2268629807692  10.2463942307692 27.59765625  C 12.5645032051282 29.9684495192308  15.3541666666667 31.1538461538462  18.6153846153846 31.1538461538462  C 21.8766025641026 31.1538461538462  24.666266025641 29.9684495192308  26.984375 27.59765625  Z M 43.0216346153846 39.1045673076923  C 43.6738782051282 39.7716346153846  44 40.5829326923077  44 41.5384615384615  C 44 42.4759615384615  43.6650641025641 43.2872596153846  42.9951923076923 43.9723557692308  C 42.3253205128205 44.6574519230769  41.5320512820513 45  40.6153846153846 45  C 39.6634615384615 45  38.8701923076923 44.6574519230769  38.2355769230769 43.9723557692308  L 29.1658653846154 34.7235576923077  C 26.0104166666667 36.9591346153846  22.4935897435897 38.0769230769231  18.6153846153846 38.0769230769231  C 16.0945512820513 38.0769230769231  13.6838942307692 37.5766225961538  11.3834134615385 36.5760216346154  C 9.08293269230769 35.5754206730769  7.09975961538462 34.2232572115385  5.43389423076923 32.51953125  C 3.76802884615385 30.8158052884615  2.44591346153846 28.7875600961538  1.46754807692308 26.4347956730769  C 0.489182692307692 24.08203125  0 21.6165865384615  0 19.0384615384615  C 0 16.4603365384615  0.489182692307692 13.9948918269231  1.46754807692308 11.6421274038462  C 2.44591346153846 9.28936298076923  3.76802884615385 7.26111778846154  5.43389423076923 5.55739182692308  C 7.09975961538462 3.85366586538462  9.08293269230769 2.50150240384615  11.3834134615385 1.50090144230769  C 13.6838942307692 0.50030048076923  16.0945512820513 0  18.6153846153846 0  C 21.1362179487179 0  23.546875 0.50030048076923  25.8473557692308 1.50090144230769  C 28.1478365384615 2.50150240384615  30.1310096153846 3.85366586538462  31.796875 5.55739182692308  C 33.4627403846154 7.26111778846154  34.7848557692308 9.28936298076923  35.7632211538462 11.6421274038462  C 36.7415865384615 13.9948918269231  37.2307692307692 16.4603365384615  37.2307692307692 19.0384615384615  C 37.2307692307692 23.0048076923077  36.1378205128205 26.6015625  33.9519230769231 29.8287259615385  L 43.0216346153846 39.1045673076923  Z " fill-rule="nonzero" fill="#000000" stroke="none" transform="matrix(1 0 0 1 343 120 )" />
  </g>
</svg>