<?xml version="1.0" encoding="utf-8"?>
<svg version="1.1" xmlns:xlink="http://www.w3.org/1999/xlink" width="91px" height="89px" xmlns="http://www.w3.org/2000/svg">
  <g transform="matrix(1 0 0 1 -162 -112 )">
    <path d="M 63.578125 78.2971540178571  C 69.1640625 75.4000186011905  73.7513020833333 71.4681919642857  77.33984375 66.5016741071429  C 76.5950520833333 61.3696056547619  75.1139322916667 57.1066778273809  72.896484375 53.712890625  C 70.6790364583333 50.3191034226191  67.5559895833333 48.3573288690476  63.52734375 47.8275669642857  C 61.2591145833333 50.2777157738095  58.5592447916667 52.1898251488095  55.427734375 53.5638950892857  C 52.2962239583333 54.9379650297619  48.9869791666667 55.625  45.5 55.625  C 42.0130208333333 55.625  38.7037760416667 54.9379650297619  35.572265625 53.5638950892857  C 32.4407552083333 52.1898251488095  29.7408854166667 50.2777157738095  27.47265625 47.8275669642857  C 23.4440104166667 48.3573288690476  20.3209635416667 50.3191034226191  18.103515625 53.712890625  C 15.8860677083333 57.1066778273809  14.4049479166667 61.3696056547619  13.66015625 66.5016741071429  C 17.2486979166667 71.4681919642857  21.8359375 75.4000186011905  27.421875 78.2971540178571  C 33.0078125 81.1942894345238  39.0338541666667 82.6428571428571  45.5 82.6428571428571  C 51.9661458333333 82.6428571428571  57.9921875 81.1942894345238  63.578125 78.2971540178571  Z M 59.287109375 45.2698102678571  C 63.095703125 41.544921875  65 37.0502232142857  65 31.7857142857143  C 65 26.5212053571429  63.095703125 22.0265066964286  59.287109375 18.3016183035714  C 55.478515625 14.5767299107143  50.8828125 12.7142857142857  45.5 12.7142857142857  C 40.1171875 12.7142857142857  35.521484375 14.5767299107143  31.712890625 18.3016183035714  C 27.904296875 22.0265066964286  26 26.5212053571429  26 31.7857142857143  C 26 37.0502232142857  27.904296875 41.544921875  31.712890625 45.2698102678571  C 35.521484375 48.9946986607143  40.1171875 50.8571428571429  45.5 50.8571428571429  C 50.8828125 50.8571428571429  55.478515625 48.9946986607143  59.287109375 45.2698102678571  Z M 87.39453125 27.2165178571429  C 89.7981770833333 32.7127976190476  91 38.4739583333333  91 44.5  C 91 50.5260416666667  89.7981770833333 56.2789248511905  87.39453125 61.7586495535714  C 84.9908854166667 67.2383742559524  81.7662760416667 71.9731212797619  77.720703125 75.962890625  C 73.6751302083333 79.9526599702381  68.8424479166667 83.1229538690476  63.22265625 85.4737723214286  C 57.6028645833333 87.8245907738095  51.6953125 89  45.5 89  C 39.3385416666667 89  33.4479166666667 87.8245907738095  27.828125 85.4737723214286  C 22.2083333333333 83.1229538690476  17.3671875 79.9609375  13.3046875 75.9877232142857  C 9.2421875 72.0145089285714  6.00911458333333 67.2797619047619  3.60546875 61.7834821428571  C 1.20182291666667 56.2872023809524  0 50.5260416666667  0 44.5  C 0 38.4739583333333  1.20182291666667 32.7127976190476  3.60546875 27.2165178571429  C 6.00911458333333 21.7202380952381  9.2421875 16.9854910714286  13.3046875 13.0122767857143  C 17.3671875 9.0390625  22.2083333333333 5.87704613095238  27.828125 3.52622767857143  C 33.4479166666667 1.17540922619048  39.3385416666667 0  45.5 0  C 51.6614583333333 0  57.5520833333333 1.17540922619048  63.171875 3.52622767857143  C 68.7916666666667 5.87704613095238  73.6328125 9.0390625  77.6953125 13.0122767857143  C 81.7578125 16.9854910714286  84.9908854166667 21.7202380952381  87.39453125 27.2165178571429  Z " fill-rule="nonzero" fill="#000000" stroke="none" transform="matrix(1 0 0 1 162 112 )" />
  </g>
</svg>