<?xml version="1.0" encoding="utf-8"?>
<svg version="1.1" xmlns:xlink="http://www.w3.org/1999/xlink" width="192px" height="24px" xmlns="http://www.w3.org/2000/svg">
  <defs>
    <mask fill="white" id="clip112">
      <path d="M 0 24  L 0 0  L 22.3199999999983 0  L 192 0  L 192 24  L 68.4 24  L 0 24  Z " fill-rule="evenodd" />
    </mask>
  </defs>
  <g transform="matrix(1 0 0 1 -143 -318 )">
    <path d="M 0 24  L 0 0  L 22.3199999999983 0  L 192 0  L 192 24  L 68.4 24  L 0 24  Z " fill-rule="nonzero" fill="#ffffff" stroke="none" transform="matrix(1 0 0 1 143 318 )" />
    <path d="M 0 24  L 0 0  L 22.3199999999983 0  L 192 0  L 192 24  L 68.4 24  L 0 24  Z " stroke-width="2" stroke="#797979" fill="none" transform="matrix(1 0 0 1 143 318 )" mask="url(#clip112)" />
  </g>
</svg>