<?xml version="1.0" encoding="utf-8"?>
<svg version="1.1" xmlns:xlink="http://www.w3.org/1999/xlink" width="192px" height="26px" xmlns="http://www.w3.org/2000/svg">
  <defs>
    <mask fill="white" id="clip113">
      <path d="M 0 26  L 0 0  L 22.3199999999982 0  L 192 0  L 192 26  L 162.477817580598 26  L 68.4 26  L 0 26  Z " fill-rule="evenodd" />
    </mask>
  </defs>
  <g transform="matrix(1 0 0 1 -143 -378 )">
    <path d="M 0 26  L 0 0  L 22.3199999999982 0  L 192 0  L 192 26  L 162.477817580598 26  L 68.4 26  L 0 26  Z " fill-rule="nonzero" fill="#ffffff" stroke="none" transform="matrix(1 0 0 1 143 378 )" />
    <path d="M 0 26  L 0 0  L 22.3199999999982 0  L 192 0  L 192 26  L 162.477817580598 26  L 68.4 26  L 0 26  Z " stroke-width="2" stroke="#797979" fill="none" transform="matrix(1 0 0 1 143 378 )" mask="url(#clip113)" />
  </g>
</svg>