<?xml version="1.0" encoding="utf-8"?>
<svg version="1.1" xmlns:xlink="http://www.w3.org/1999/xlink" width="31px" height="32px" xmlns="http://www.w3.org/2000/svg">
  <g transform="matrix(1 0 0 1 -309 -586 )">
    <path d="M 25.1654829545455 14.75  C 25.2975852272727 14.8863636363636  25.3636363636364 15.0606060606061  25.3636363636364 15.2727272727273  L 25.3636363636364 16.7272727272727  C 25.3636363636364 16.9393939393939  25.2975852272727 17.1136363636364  25.1654829545455 17.25  C 25.0333806818182 17.3863636363636  24.8645833333333 17.4545454545455  24.6590909090909 17.4545454545455  L 16.9090909090909 17.4545454545455  L 16.9090909090909 25.4545454545455  C 16.9090909090909 25.6666666666667  16.8430397727273 25.8409090909091  16.7109375 25.9772727272727  C 16.5788352272727 26.1136363636364  16.4100378787879 26.1818181818182  16.2045454545455 26.1818181818182  L 14.7954545454545 26.1818181818182  C 14.5899621212121 26.1818181818182  14.4211647727273 26.1136363636364  14.2890625 25.9772727272727  C 14.1569602272727 25.8409090909091  14.0909090909091 25.6666666666667  14.0909090909091 25.4545454545455  L 14.0909090909091 17.4545454545455  L 6.34090909090909 17.4545454545455  C 6.13541666666667 17.4545454545455  5.96661931818182 17.3863636363636  5.83451704545455 17.25  C 5.70241477272727 17.1136363636364  5.63636363636364 16.9393939393939  5.63636363636364 16.7272727272727  L 5.63636363636364 15.2727272727273  C 5.63636363636364 15.0606060606061  5.70241477272727 14.8863636363636  5.83451704545455 14.75  C 5.96661931818182 14.6136363636364  6.13541666666667 14.5454545454545  6.34090909090909 14.5454545454545  L 14.0909090909091 14.5454545454545  L 14.0909090909091 6.54545454545455  C 14.0909090909091 6.33333333333333  14.1569602272727 6.15909090909091  14.2890625 6.02272727272727  C 14.4211647727273 5.88636363636364  14.5899621212121 5.81818181818182  14.7954545454545 5.81818181818182  L 16.2045454545455 5.81818181818182  C 16.4100378787879 5.81818181818182  16.5788352272727 5.88636363636364  16.7109375 6.02272727272727  C 16.8430397727273 6.15909090909091  16.9090909090909 6.33333333333333  16.9090909090909 6.54545454545455  L 16.9090909090909 14.5454545454545  L 24.6590909090909 14.5454545454545  C 24.8645833333333 14.5454545454545  25.0333806818182 14.6136363636364  25.1654829545455 14.75  Z M 27.1470170454545 28.0227272727273  C 27.836884469697 27.3106060606061  28.1818181818182 26.4545454545455  28 25.4545454545455  L 28 6.54545454545455  C 28.1818181818182 5.54545454545455  27.836884469697 4.68939393939394  27.1470170454545 3.97727272727273  C 26.4571496212121 3.26515151515151  25.6278409090909 2.90909090909091  24.6590909090909 3  L 6.34090909090909 3  C 5.37215909090909 2.90909090909091  4.54285037878788 3.26515151515151  3.85298295454545 3.97727272727273  C 3.16311553030303 4.68939393939394  2.81818181818182 5.54545454545455  3 6.54545454545455  L 3 25.4545454545455  C 2.81818181818182 26.4545454545455  3.16311553030303 27.3106060606061  3.85298295454545 28.0227272727273  C 4.54285037878788 28.7348484848485  5.37215909090909 29.0909090909091  6.34090909090909 29  L 24.6590909090909 29  C 25.6278409090909 29.0909090909091  26.4571496212121 28.7348484848485  27.1470170454545 28.0227272727273  Z M 29.1395596590909 1.92045454545455  C 30.379853219697 3.20075757575757  31 4.74242424242424  31 6.54545454545455  L 31 25.4545454545455  C 31 27.2575757575758  30.379853219697 28.7992424242424  29.1395596590909 30.0795454545455  C 27.8992660984849 31.3598484848485  26.4057765151515 32  24.6590909090909 32  L 6.34090909090909 32  C 4.59422348484849 32  3.10073390151515 31.3598484848485  1.86044034090909 30.0795454545455  C 0.62014678030303 28.7992424242424  0 27.2575757575758  0 25.4545454545455  L 0 6.54545454545455  C 0 4.74242424242424  0.62014678030303 3.20075757575757  1.86044034090909 1.92045454545455  C 3.10073390151515 0.640151515151512  4.59422348484849 0  6.34090909090909 0  L 24.6590909090909 0  C 26.4057765151515 0  27.8992660984849 0.640151515151512  29.1395596590909 1.92045454545455  Z " fill-rule="nonzero" fill="#000000" stroke="none" transform="matrix(1 0 0 1 309 586 )" />
  </g>
</svg>