<?xml version="1.0" encoding="utf-8"?>
<svg version="1.1" xmlns:xlink="http://www.w3.org/1999/xlink" width="33px" height="32px" xmlns="http://www.w3.org/2000/svg">
  <g transform="matrix(1 0 0 1 -196 -586 )">
    <path d="M 26.7890625 14.75  C 26.9296875 14.8863636363636  27 15.060606060606  27 15.2727272727273  L 27 16.7272727272727  C 27 16.939393939394  26.9296875 17.1136363636364  26.7890625 17.25  C 26.6484375 17.3863636363636  26.46875 17.4545454545455  26.25 17.4545454545455  L 17.4000000000015 17  L 6.75 17  C 6.53125 17.4545454545455  6.3515625 17.3863636363636  6.2109375 17.25  C 6.0703125 17.1136363636364  6 16.939393939394  6 16.7272727272727  L 6 15.2727272727273  C 6 15.060606060606  6.0703125 14.8863636363636  6.2109375 14.75  C 6.3515625 14.6136363636364  6.53125 14.5454545454545  6.75 15  L 26.25 15  C 26.46875 14.5454545454545  26.6484375 14.6136363636364  26.7890625 14.75  Z M 28.8984375 28.0227272727273  C 29.6328125 27.310606060606  30 26.4545454545455  30 25.4545454545455  L 30 6.5454545454545  C 30 5.5454545454545  29.6328125 4.68939393939399  28.8984375 3.97727272727275  C 28.1640625 3.2651515151515  27.28125 2.90909090909088  26.25 3  L 6.75 3  C 5.71875 2.90909090909088  4.8359375 3.2651515151515  4.1015625 3.97727272727275  C 3.3671875 4.68939393939399  3 5.5454545454545  3 6.5454545454545  L 3 25.4545454545455  C 3 26.4545454545455  3.3671875 27.310606060606  4.1015625 28.0227272727273  C 4.8359375 28.7348484848485  5.71875 29.0909090909091  6.75 29  L 26.25 29  C 27.28125 29.0909090909091  28.1640625 28.7348484848485  28.8984375 28.0227272727273  Z M 31.01953125 1.9204545454545  C 32.33984375 3.20075757575762  33 4.74242424242425  33 6.5454545454545  L 33 25.4545454545455  C 33 27.2575757575758  32.33984375 28.7992424242424  31.01953125 30.0795454545455  C 29.69921875 31.3598484848485  28.109375 32  26.25 32  L 6.75 32  C 4.890625 32  3.30078125 31.3598484848485  1.98046875 30.0795454545455  C 0.66015625 28.7992424242424  0 27.2575757575758  0 25.4545454545455  L 0 6.5454545454545  C 0 4.74242424242425  0.66015625 3.20075757575762  1.98046875 1.9204545454545  C 3.30078125 0.640151515151501  4.890625 0  6.75 0  L 26.25 0  C 28.109375 0  29.69921875 0.640151515151501  31.01953125 1.9204545454545  Z " fill-rule="nonzero" fill="#000000" stroke="none" transform="matrix(1 0 0 1 196 586 )" />
  </g>
</svg>