<?xml version="1.0" encoding="utf-8"?>
<svg version="1.1" xmlns:xlink="http://www.w3.org/1999/xlink" width="36px" height="44px" xmlns="http://www.w3.org/2000/svg">
  <defs>
    <filter x="12px" y="498px" width="36px" height="44px" filterUnits="userSpaceOnUse" id="filter116">
      <feOffset dx="1" dy="1" in="SourceAlpha" result="shadowOffsetInner" />
      <feGaussianBlur stdDeviation="2.5" in="shadowOffsetInner" result="shadowGaussian" />
      <feComposite in2="shadowGaussian" operator="atop" in="SourceAlpha" result="shadowComposite" />
      <feColorMatrix type="matrix" values="0 0 0 0 0  0 0 0 0 0  0 0 0 0 0  0 0 0 0.698039215686274 0  " in="shadowComposite" />
    </filter>
    <g id="widget117">
      <path d="M 29 535.049442391582  C 24 526.915041471743  16.5 522.034400919839  16.5 513.9  C 16.5 509.665714285714  19 502.5  29 502.5  C 39 502.5  41.5 509.665714285714  41.5 513.9  C 41.5 522.034400919839  34 526.915041471743  29 535.049442391582  Z " fill-rule="nonzero" fill="#ff0000" stroke="none" />
      <path d="M 29 536  C 23.8 527.5  16 522.4  16 513.9  C 16 509.48  18.6 502  29 502  C 39.4 502  42 509.48  42 513.9  C 42 522.4  34.2 527.5  29 536  Z M 29 534.098884783164  C 33.8 526.330082943485  41 521.668801839678  41 513.9  C 41 509.851428571429  38.6 503  29 503  C 19.4 503  17 509.851428571429  17 513.9  C 17 521.668801839678  24.2 526.330082943485  29 534.098884783164  Z " fill-rule="nonzero" fill="#000000" stroke="none" />
    </g>
  </defs>
  <g transform="matrix(1 0 0 1 -12 -498 )">
    <use xlink:href="#widget117" filter="url(#filter116)" />
    <use xlink:href="#widget117" />
  </g>
</svg>