<?xml version="1.0" encoding="utf-8"?>
<svg version="1.1" xmlns:xlink="http://www.w3.org/1999/xlink" width="34px" height="42px" xmlns="http://www.w3.org/2000/svg">
  <defs>
    <filter x="188px" y="195px" width="34px" height="42px" filterUnits="userSpaceOnUse" id="filter122">
      <feOffset dx="1" dy="1" in="SourceAlpha" result="shadowOffsetInner" />
      <feGaussianBlur stdDeviation="2.5" in="shadowOffsetInner" result="shadowGaussian" />
      <feComposite in2="shadowGaussian" operator="atop" in="SourceAlpha" result="shadowComposite" />
      <feColorMatrix type="matrix" values="0 0 0 0 0  0 0 0 0 0  0 0 0 0 0  0 0 0 0.698039215686274 0  " in="shadowComposite" />
    </filter>
    <g id="widget123">
      <path d="M 204 228.110785405061  C 199.8 221.22202178773  193.5 217.088763617331  193.5 210.2  C 193.5 206.597142857143  195.6 200.5  204 200.5  C 212.4 200.5  214.5 206.597142857143  214.5 210.2  C 214.5 217.088763617331  208.2 221.22202178773  204 228.110785405061  Z " fill-rule="nonzero" fill="#ff0000" stroke="none" />
      <path d="M 204 231  C 199.2 223  192 218.2  192 210.2  C 192 206.04  194.4 199  204 199  C 213.6 199  216 206.04  216 210.2  C 216 218.2  208.8 223  204 231  Z M 204 227.147713873414  C 208 220.62936238364  214 216.718351489775  214 210.2  C 214 206.782857142857  212 201  204 201  C 196 201  194 206.782857142857  194 210.2  C 194 216.718351489775  200 220.62936238364  204 227.147713873414  Z " fill-rule="nonzero" fill="#030303" stroke="none" />
    </g>
  </defs>
  <g transform="matrix(1 0 0 1 -188 -195 )">
    <use xlink:href="#widget123" filter="url(#filter122)" />
    <use xlink:href="#widget123" />
  </g>
</svg>