<?xml version="1.0" encoding="utf-8"?>
<svg version="1.1" xmlns:xlink="http://www.w3.org/1999/xlink" width="34px" height="42px" xmlns="http://www.w3.org/2000/svg">
  <defs>
    <filter x="99px" y="338px" width="34px" height="42px" filterUnits="userSpaceOnUse" id="filter120">
      <feOffset dx="1" dy="1" in="SourceAlpha" result="shadowOffsetInner" />
      <feGaussianBlur stdDeviation="2.5" in="shadowOffsetInner" result="shadowGaussian" />
      <feComposite in2="shadowGaussian" operator="atop" in="SourceAlpha" result="shadowComposite" />
      <feColorMatrix type="matrix" values="0 0 0 0 0  0 0 0 0 0  0 0 0 0 0  0 0 0 0.698039215686274 0  " in="shadowComposite" />
    </filter>
    <g id="widget121">
      <path d="M 115 371.110785405061  C 110.8 364.22202178773  104.5 360.088763617331  104.5 353.2  C 104.5 349.597142857143  106.6 343.5  115 343.5  C 123.4 343.5  125.5 349.597142857143  125.5 353.2  C 125.5 360.088763617331  119.2 364.22202178773  115 371.110785405061  Z " fill-rule="nonzero" fill="#95f204" stroke="none" />
      <path d="M 115 374  C 110.2 366  103 361.2  103 353.2  C 103 349.04  105.4 342  115 342  C 124.6 342  127 349.04  127 353.2  C 127 361.2  119.8 366  115 374  Z M 115 370.147713873414  C 119 363.62936238364  125 359.718351489775  125 353.2  C 125 349.782857142857  123 344  115 344  C 107 344  105 349.782857142857  105 353.2  C 105 359.718351489775  111 363.62936238364  115 370.147713873414  Z " fill-rule="nonzero" fill="#030303" stroke="none" />
    </g>
  </defs>
  <g transform="matrix(1 0 0 1 -99 -338 )">
    <use xlink:href="#widget121" filter="url(#filter120)" />
    <use xlink:href="#widget121" />
  </g>
</svg>