<?xml version="1.0" encoding="utf-8"?>
<svg version="1.1" xmlns:xlink="http://www.w3.org/1999/xlink" width="36px" height="44px" xmlns="http://www.w3.org/2000/svg">
  <defs>
    <filter x="10px" y="582px" width="36px" height="44px" filterUnits="userSpaceOnUse" id="filter124">
      <feOffset dx="1" dy="1" in="SourceAlpha" result="shadowOffsetInner" />
      <feGaussianBlur stdDeviation="2.5" in="shadowOffsetInner" result="shadowGaussian" />
      <feComposite in2="shadowGaussian" operator="atop" in="SourceAlpha" result="shadowComposite" />
      <feColorMatrix type="matrix" values="0 0 0 0 0  0 0 0 0 0  0 0 0 0 0  0 0 0 0.698039215686274 0  " in="shadowComposite" />
    </filter>
    <g id="widget125">
      <path d="M 27 619.049442391582  C 22 610.915041471743  14.5 606.034400919839  14.5 597.9  C 14.5 593.665714285714  17 586.5  27 586.5  C 37 586.5  39.5 593.665714285714  39.5 597.9  C 39.5 606.034400919839  32 610.915041471743  27 619.049442391582  Z " fill-rule="nonzero" fill="#009dd9" stroke="none" />
      <path d="M 27 620  C 21.8 611.5  14 606.4  14 597.9  C 14 593.48  16.6 586  27 586  C 37.4 586  40 593.48  40 597.9  C 40 606.4  32.2 611.5  27 620  Z M 27 618.098884783164  C 31.8 610.330082943485  39 605.668801839678  39 597.9  C 39 593.851428571429  36.6 587  27 587  C 17.4 587  15 593.851428571429  15 597.9  C 15 605.668801839678  22.2 610.330082943485  27 618.098884783164  Z " fill-rule="nonzero" fill="#000000" stroke="none" />
    </g>
  </defs>
  <g transform="matrix(1 0 0 1 -10 -582 )">
    <use xlink:href="#widget125" filter="url(#filter124)" />
    <use xlink:href="#widget125" />
  </g>
</svg>