<?xml version="1.0" encoding="utf-8"?>
<svg version="1.1" xmlns:xlink="http://www.w3.org/1999/xlink" width="36px" height="37px" xmlns="http://www.w3.org/2000/svg">
  <g transform="matrix(1 0 0 1 -354 -93 )">
    <path d="M 22.078125 22.69140625  C 23.9747596153846 20.7420873397436  24.9230769230769 18.396233974359  24.9230769230769 15.6538461538462  C 24.9230769230769 12.9114583333333  23.9747596153846 10.5656049679487  22.078125 8.61628605769231  C 20.1814903846154 6.6669671474359  17.8990384615385 5.69230769230769  15.2307692307692 5.69230769230769  C 12.5625 5.69230769230769  10.2800480769231 6.6669671474359  8.38341346153846 8.61628605769231  C 6.48677884615385 10.5656049679487  5.53846153846154 12.9114583333333  5.53846153846154 15.6538461538462  C 5.53846153846154 18.396233974359  6.48677884615385 20.7420873397436  8.38341346153846 22.69140625  C 10.2800480769231 24.6407251602564  12.5625 25.6153846153846  15.2307692307692 25.6153846153846  C 17.8990384615385 25.6153846153846  20.1814903846154 24.6407251602564  22.078125 22.69140625  Z M 35.1995192307692 32.1526442307692  C 35.7331730769231 32.7011217948718  36 33.3681891025641  36 34.1538461538462  C 36 34.9246794871795  35.7259615384615 35.5917467948718  35.1778846153846 36.1550480769231  C 34.6298076923077 36.7183493589744  33.9807692307692 37  33.2307692307692 37  C 32.4519230769231 37  31.8028846153846 36.7183493589744  31.2836538461538 36.1550480769231  L 23.8629807692308 28.5504807692308  C 21.28125 30.3886217948718  18.4038461538462 31.3076923076923  15.2307692307692 31.3076923076923  C 13.1682692307692 31.3076923076923  11.1959134615385 30.8963341346154  9.31370192307692 30.0736177884615  C 7.43149038461539 29.2509014423077  5.80889423076923 28.1391225961538  4.44591346153846 26.73828125  C 3.08293269230769 25.3374399038462  2.00120192307692 23.6697716346154  1.20072115384615 21.7352764423077  C 0.400240384615385 19.80078125  0 17.7736378205128  0 15.6538461538462  C 0 13.5340544871795  0.400240384615385 11.5069110576923  1.20072115384615 9.57241586538462  C 2.00120192307692 7.63792067307692  3.08293269230769 5.97025240384616  4.44591346153846 4.56941105769231  C 5.80889423076923 3.16856971153846  7.43149038461539 2.05679086538462  9.31370192307692 1.23407451923077  C 11.1959134615385 0.411358173076922  13.1682692307692 0  15.2307692307692 0  C 17.2932692307692 0  19.265625 0.411358173076922  21.1478365384615 1.23407451923077  C 23.0300480769231 2.05679086538462  24.6526442307692 3.16856971153846  26.015625 4.56941105769231  C 27.3786057692308 5.97025240384616  28.4603365384615 7.63792067307692  29.2608173076923 9.57241586538462  C 30.0612980769231 11.5069110576923  30.4615384615385 13.5340544871795  30.4615384615385 15.6538461538462  C 30.4615384615385 18.9150641025641  29.5673076923077 21.8723958333333  27.7788461538462 24.5258413461538  L 35.1995192307692 32.1526442307692  Z " fill-rule="nonzero" fill="#000000" stroke="none" transform="matrix(1 0 0 1 354 93 )" />
  </g>
</svg>