<?xml version="1.0" encoding="utf-8"?>
<svg version="1.1" xmlns:xlink="http://www.w3.org/1999/xlink" width="360px" height="45px" xmlns="http://www.w3.org/2000/svg">
  <defs>
    <mask fill="white" id="clip128">
      <path d="M 22.5 45  C 10.811317691907 45  1.44619480727538 36.4802821139751  0.152641488923049 25.1888564847435  C 0.051788544735885 24.3085112352497  0 23.411317691907  0 22.5  C 0 9.89999999999998  9.9 0  22.5 0  L 337.5 0  C 350.1 0  360 9.89999999999998  360 22.5  C 360 35.1  350.1 45  337.5 45  L 22.5 45  Z " fill-rule="evenodd" />
    </mask>
  </defs>
  <g transform="matrix(1 0 0 1 -27 -666 )">
    <path d="M 22.5 45  C 10.811317691907 45  1.44619480727538 36.4802821139751  0.152641488923049 25.1888564847435  C 0.051788544735885 24.3085112352497  0 23.411317691907  0 22.5  C 0 9.89999999999998  9.9 0  22.5 0  L 337.5 0  C 350.1 0  360 9.89999999999998  360 22.5  C 360 35.1  350.1 45  337.5 45  L 22.5 45  Z " fill-rule="nonzero" fill="#ffffff" stroke="none" transform="matrix(1 0 0 1 27 666 )" />
    <path d="M 22.5 45  C 10.811317691907 45  1.44619480727538 36.4802821139751  0.152641488923049 25.1888564847435  C 0.051788544735885 24.3085112352497  0 23.411317691907  0 22.5  C 0 9.89999999999998  9.9 0  22.5 0  L 337.5 0  C 350.1 0  360 9.89999999999998  360 22.5  C 360 35.1  350.1 45  337.5 45  L 22.5 45  Z " stroke-width="4" stroke="#797979" fill="none" transform="matrix(1 0 0 1 27 666 )" mask="url(#clip128)" />
  </g>
</svg>